<svg xmlns="http://www.w3.org/2000/svg" viewBox="0 0 96.2 150.8" fill="#F67D4E"><g id="图层_2" data-name="图层 2"><g id="图层_2-2" data-name="图层 2"><path d="M19.4,36.8H4.8Q8.81,19,20.1,9.5A40.47,40.47,0,0,1,47,0Q64,0,76.1,10.8T88.2,37q0,18.6-18.4,29.4A42.07,42.07,0,0,1,89.3,81.9a39.62,39.62,0,0,1,6.9,22.5q0,19-13.9,32.7T47.2,150.8q-18.8,0-31-10.7T0,108.8H14q3.8,14.2,11.7,21.1t21.7,6.9q15,0,24.8-9.2t9.8-22q0-14.4-10.8-22.7T39.8,74.2V61q14.81,0,24.1-6.8T73.2,37a21.27,21.27,0,0,0-7.5-16.5Q58.2,13.8,47,13.8q-10,0-16.5,5.7T19.4,36.8Z"/></g></g></svg>