<svg xmlns="http://www.w3.org/2000/svg" viewBox="0 0 88.6 150.8" fill="#4CC473"><g id="图层_2" data-name="图层 2"><g id="图层_2-2" data-name="图层 2"><path d="M60,0,71.8,7.6,33,66.4a48.18,48.18,0,0,1,15.6-2.8q16,0,28,12.7a43.09,43.09,0,0,1,12,30.7q0,18.6-13.1,31.2T43.6,150.8Q25,150.8,12.5,138T0,106.8A52.46,52.46,0,0,1,3.4,88.7q3.41-9.3,13-23.7ZM74.4,106.6a29.16,29.16,0,0,0-8.8-21.4,29.12,29.12,0,0,0-21.4-8.8,29.12,29.12,0,0,0-21.4,8.8,30.3,30.3,0,0,0,.1,42.8,29.2,29.2,0,0,0,21.3,8.8A29.22,29.22,0,0,0,65.5,128,29,29,0,0,0,74.4,106.6Z"/></g></g></svg>