<svg xmlns="http://www.w3.org/2000/svg" viewBox="0 0 1920 870"><defs><style>.cls-1{fill:#51a8dd;}.cls-2{fill:#fff;}.cls-3{fill:#ddd;}</style></defs><g id="圖層_2" data-name="圖層 2"><g id="圖層_1-2" data-name="圖層 1"><path class="cls-1" d="M1105.82,305l8.25,35.31q-6.42,3.21-22.47,8t-36.69,4.83q-24.3,0-40.11-6.21a58.44,58.44,0,0,1-25.46-18.55q-9.63-12.39-13.52-30.51t-3.91-41.95V184.75c13.54-1.41,27.73-2.51,42.65-3.21v73.89q0,17.88,2.75,29.57c1.83,7.79,4.59,13.94,8.25,18.34a29.73,29.73,0,0,0,13.76,9.41,60.86,60.86,0,0,0,19.26,2.76q19.26,0,31-4.38C1097.35,308.23,1102.76,306.18,1105.82,305Z"/><path class="cls-2" d="M428.88,250.72a279.18,279.18,0,0,0,47.85,14.77c10.73,2.32,22.9,4.43,37.08,6.33a496.13,496.13,0,0,0,84.6,4.46,410.25,410.25,0,0,0,47.42-4.55c1.19-4.22,2.17-8.56,3-13.06a393.45,393.45,0,0,1-46,4.5,134.84,134.84,0,0,0,4-34.34q0-40.35-18.1-64t-49.32-23.61q-31.17,0-49.28,23.61t-18.13,64A149.2,149.2,0,0,0,473.61,251a275.59,275.59,0,0,1-45.92-15.1C427.91,241,428.3,245.92,428.88,250.72Z"/><path class="cls-2" d="M1450,239.14v13.42c-13.27-1.59-26.48-3.82-39.74-6.48V232.41C1423.52,235.16,1436.73,237.46,1450,239.14Z"/><path class="cls-2" d="M1014.56,168.67v12.87c-14.92.7-29.11,1.8-42.65,3.21V172.06C985.42,170.59,999.61,169.43,1014.56,168.67Z"/><path class="cls-2" d="M1146.33,186.19q22.05,2.66,42.64,6.29c22.35,3.89,43.54,8.5,63.87,13.42,34.18,8.26,65.91,17.4,96.49,25.56v-6.29c0-2.57,0-5.11-.1-7.59-14.46-3.88-29.22-8-44.39-12q.38-28.66-14.43-47.11t-41.06-18.56q-14.67,0-25.89,5.72a61.27,61.27,0,0,0-19,14.91A67.16,67.16,0,0,0,1193,179.64q-20.55-3.62-42.47-6.36l-.27.74A119.54,119.54,0,0,0,1146.33,186.19Z"/><path class="cls-1" d="M751.48,242.77c33.42-12,67.42-25.19,107.16-36.38,13.48-3.79,27.64-7.36,42.65-10.54V341.19q-14.68,3.66-38.74,7.79t-55.73,4.13q-27.51,0-46.32-8t-30.26-22.68a92.14,92.14,0,0,1-16.51-34.64A165.66,165.66,0,0,1,709.11,257C723.39,252.62,737.39,247.82,751.48,242.77Z"/><path class="cls-3" d="M858.64,109.6h42.65v73.86c-15,3.28-29.17,6.91-42.65,10.77Z"/><path class="cls-1" d="M598.41,276.28a496.13,496.13,0,0,1-84.6-4.46c-14.18-1.9-26.35-4-37.08-6.33a279.18,279.18,0,0,1-47.85-14.77,139.44,139.44,0,0,0,6.94,29.48A117.52,117.52,0,0,0,459,319.63a101.71,101.71,0,0,0,35.52,25.44,117.21,117.21,0,0,0,89.89,0A101.82,101.82,0,0,0,620,319.63,117.27,117.27,0,0,0,643.1,280.2c1-2.76,1.9-5.57,2.73-8.47A410.25,410.25,0,0,1,598.41,276.28Z"/><path class="cls-1" d="M1189,192.48c22.35,3.89,43.54,8.5,63.87,13.42,34.18,8.26,65.91,17.4,96.49,25.56v.8a66.43,66.43,0,0,1-.46,8H1185.61q2.75,37.14,21.55,56.4t58.7,19.26q22.47,0,37.85-3.91t23.14-7.55l6,35.77q-7.8,4.13-27.27,8.71t-44.27,4.59q-31.18,0-53.87-9.42T1170,318.26A105.82,105.82,0,0,1,1148.25,279q-7.11-22.69-7.12-49.74,0-23.85,5.2-43.1Q1168.38,188.85,1189,192.48Z"/><path class="cls-3" d="M1323.64,133.66q24.09,28.16,25.59,83.92c-14.46-3.88-29.22-8-44.39-12q.38-28.66-14.43-47.11t-41.06-18.56q-14.67,0-25.89,5.72a61.27,61.27,0,0,0-19,14.91A67.16,67.16,0,0,0,1193,179.64q-20.55-3.62-42.47-6.36,9.14-23.1,24-38.46a98.63,98.63,0,0,1,34.86-23.38,108.76,108.76,0,0,1,40.35-7.8Q1298,103.64,1323.64,133.66Z"/><path class="cls-3" d="M1104.9,109.6v35.77h-90.34v23.3c-14.95.76-29.14,1.92-42.65,3.39V43.11l42.65-7.34V109.6Z"/><path class="cls-3" d="M1450,0V239.14c-13.27-1.68-26.48-4-39.74-6.73V0Z"/><path class="cls-1" d="M1450,252.56v96h-39.74V246.08C1423.52,248.74,1436.73,251,1450,252.56Z"/><path class="cls-3" d="M708.71,245c0-.49,0-1,0-1.47V109.6h42.65V230.88C737.18,235.9,723.08,240.7,708.71,245Z"/><path class="cls-3" d="M643.1,177.69q8.26,23.16,8.26,51.14a169.07,169.07,0,0,1-2.54,29.84,393.45,393.45,0,0,1-46,4.5,134.84,134.84,0,0,0,4-34.34q0-40.35-18.1-64t-49.32-23.61q-31.17,0-49.28,23.61t-18.13,64A149.2,149.2,0,0,0,473.61,251a275.59,275.59,0,0,1-45.92-15.1c-.09-2.33-.12-4.68-.12-7.07q0-28,8.25-51.14A117.13,117.13,0,0,1,459,138a101.89,101.89,0,0,1,35.52-25.46,117.57,117.57,0,0,1,89.89,0A102,102,0,0,1,620,138Q634.87,154.54,643.1,177.69Z"/><path class="cls-1" d="M1920,506.39V870H0V491H7.36A1120.32,1120.32,0,0,1,245,533.08c179.78,52.37,163.24,97,293.71,117.06C790.85,689,849.65,522,1135.2,500.65c320.91-24,453.61,171.51,679.15,76C1865,555.18,1893.29,530.5,1920,506.39Z"/></g></g></svg>