<?xml version="1.0" standalone="no"?><!DOCTYPE svg PUBLIC "-//W3C//DTD SVG 1.1//EN" "http://www.w3.org/Graphics/SVG/1.1/DTD/svg11.dtd"><svg t="1609221690220" class="icon" viewBox="0 0 1024 1024" version="1.1" xmlns="http://www.w3.org/2000/svg" p-id="8348" width="32" height="32" xmlns:xlink="http://www.w3.org/1999/xlink"><defs><style type="text/css"></style></defs><path d="M805.328 384H736a32 32 0 1 0 0 64h69.328c14.704 0 26.672 11.168 26.672 24.896v334.224c0 13.712-11.968 24.88-26.672 24.88H218.672C203.968 832 192 820.832 192 807.104V472.896c0-13.728 11.968-24.896 26.672-24.896H288a32 32 0 1 0 0-64h-69.328C168.672 384 128 423.872 128 472.896v334.224C128 856.128 168.672 896 218.672 896h586.672C855.328 896 896 856.128 896 807.104V472.896C896 423.872 855.328 384 805.328 384z" p-id="8349" fill="#8393A1"></path><path d="M480 704a32 32 0 0 0 64 0V320h128L512.832 128 352 320h128v384z" p-id="8350" fill="#8393A1"></path></svg>