<svg xmlns="http://www.w3.org/2000/svg" viewBox="0 0 1022.43 354.03"><defs><style>.cls-1{fill:#3FAFF4;}.cls-2{fill:#3FAFF4;}</style></defs><g id="圖層_2" data-name="圖層 2"><g id="圖層_2-2" data-name="圖層 2"><path class="cls-1" d="M473.72,109.6v73.86c-15,3.25-29.17,6.88-42.65,10.74V109.6Z"/><path class="cls-1" d="M323.76,109.6V230.85c-14.15,5.05-28.22,9.82-42.62,14.1,0-.46,0-.95,0-1.44V109.6Z"/><path class="cls-1" d="M215.53,177.69q8.26,23.16,8.26,51.14a169.07,169.07,0,0,1-2.54,29.84,393.45,393.45,0,0,1-46,4.5,134.84,134.84,0,0,0,4-34.34q0-40.35-18.1-64t-49.32-23.61q-31.17,0-49.28,23.61t-18.13,64A145.27,145.27,0,0,0,46.07,251,276.79,276.79,0,0,1,.12,235.9C0,233.57,0,231.22,0,228.83q0-28,8.25-51.14A117.13,117.13,0,0,1,31.43,138,101.89,101.89,0,0,1,67,112.57a111.84,111.84,0,0,1,44.94-8.93,111.86,111.86,0,0,1,45,8.93A102,102,0,0,1,192.39,138Q207.3,154.54,215.53,177.69Z"/><path class="cls-2" d="M323.91,242.77c33.42-12,67.42-25.19,107.16-36.38,13.48-3.79,27.64-7.36,42.65-10.54V341.19Q459,344.85,435,349t-55.73,4.13q-27.51,0-46.32-8t-30.26-22.68a92.14,92.14,0,0,1-16.51-34.64A165.66,165.66,0,0,1,281.54,257C295.82,252.62,309.82,247.82,323.91,242.77Z"/><path class="cls-2" d="M170.84,276.28a496.13,496.13,0,0,1-84.6-4.46c-14.21-1.9-26.38-4-37.11-6.36A278.77,278.77,0,0,1,1.31,250.69,137.47,137.47,0,0,0,8.25,280.2a117.52,117.52,0,0,0,23.18,39.43A101.71,101.71,0,0,0,67,345.07a111.86,111.86,0,0,0,44.94,9,111.87,111.87,0,0,0,45-9,101.82,101.82,0,0,0,35.55-25.44,117.27,117.27,0,0,0,23.14-39.43c1-2.76,1.9-5.57,2.73-8.47A410.25,410.25,0,0,1,170.84,276.28Z"/><path class="cls-2" d="M678.25,305l8.25,35.31q-6.42,3.21-22.47,8t-36.69,4.83q-24.3,0-40.14-6.21a58.52,58.52,0,0,1-25.43-18.55q-9.63-12.39-13.52-30.51t-3.91-41.95V184.75c13.54-1.41,27.73-2.51,42.65-3.21v73.89q0,17.88,2.75,29.57T598,303.34a29.73,29.73,0,0,0,13.76,9.41A60.86,60.86,0,0,0,631,315.51q19.26,0,31-4.38C669.75,308.23,675.19,306.18,678.25,305Z"/><path class="cls-2" d="M1022.43,252.56v96H982.69V246.08C996,248.74,1009.16,251,1022.43,252.56Z"/><path class="cls-2" d="M761.37,192.48c22.35,3.89,43.57,8.5,63.9,13.42,34.18,8.26,65.91,17.4,96.49,25.56v.8a66.43,66.43,0,0,1-.46,8H758q2.75,37.14,21.55,56.4T838.29,316q22.47,0,37.82-3.91t23.17-7.55l6,35.77q-7.8,4.13-27.3,8.71a195.4,195.4,0,0,1-44.24,4.59q-31.19,0-53.9-9.42t-37.36-25.89A105.4,105.4,0,0,1,720.68,279q-7.15-22.69-7.12-49.74a166,166,0,0,1,5.2-43.1Q740.76,188.85,761.37,192.48Z"/><path class="cls-1" d="M896.07,133.66q24.09,28.16,25.59,83.89c-14.49-3.88-29.22-8-44.39-12q.38-28.62-14.43-47.08t-41.06-18.56q-14.67,0-25.92,5.72a61.15,61.15,0,0,0-19,14.91,67,67,0,0,0-11.37,19.11c-13.7-2.41-27.82-4.55-42.43-6.33q9.08-23.1,24-38.46a98.63,98.63,0,0,1,34.86-23.38,108.76,108.76,0,0,1,40.35-7.8Q870.39,103.64,896.07,133.66Z"/><path class="cls-1" d="M677.33,109.6v35.77H587v23.27c-15,.76-29.14,1.92-42.65,3.39V43.11L587,35.77V109.6Z"/><path class="cls-1" d="M1022.43,0V239.11c-13.27-1.69-26.48-4-39.74-6.7V0Z"/></g></g></svg>