<?xml version="1.0" standalone="no"?><!DOCTYPE svg PUBLIC "-//W3C//DTD SVG 1.1//EN" "http://www.w3.org/Graphics/SVG/1.1/DTD/svg11.dtd"><svg t="1608903956001" class="icon" viewBox="0 0 1024 1024" version="1.1" xmlns="http://www.w3.org/2000/svg" p-id="4734" xmlns:xlink="http://www.w3.org/1999/xlink" width="22" height="22"><defs><style type="text/css"></style></defs><path d="M512 153.6c225.28 0 409.6 138.24 409.6 307.2s-184.32 307.2-409.6 307.2c-56.32 0-117.76-10.24-168.96-30.72-10.24-5.12-20.48-5.12-35.84-5.12-15.36 0-30.72 5.12-40.96 10.24L102.4 814.08V460.8c0-168.96 184.32-307.2 409.6-307.2m0-102.4C230.4 51.2 0 235.52 0 460.8v512l307.2-138.24c66.56 25.6 133.12 35.84 204.8 35.84 281.6 0 512-184.32 512-409.6s-230.4-409.6-512-409.6z" p-id="4735" fill="#2BA6F2"></path><path d="M307.2 409.6c30.72 0 51.2 20.48 51.2 51.2s-20.48 51.2-51.2 51.2-51.2-20.48-51.2-51.2 20.48-51.2 51.2-51.2z m204.8 0c30.72 0 51.2 20.48 51.2 51.2s-20.48 51.2-51.2 51.2-51.2-20.48-51.2-51.2 20.48-51.2 51.2-51.2z m204.8 0c30.72 0 51.2 20.48 51.2 51.2s-20.48 51.2-51.2 51.2-51.2-20.48-51.2-51.2 20.48-51.2 51.2-51.2z" p-id="4736" fill="#2BA6F2"></path></svg>