<?xml version="1.0" standalone="no"?><!DOCTYPE svg PUBLIC "-//W3C//DTD SVG 1.1//EN" "http://www.w3.org/Graphics/SVG/1.1/DTD/svg11.dtd"><svg t="1609483177779" class="icon" viewBox="0 0 1024 1024" version="1.1" xmlns="http://www.w3.org/2000/svg" p-id="2526" width="32" height="32" xmlns:xlink="http://www.w3.org/1999/xlink"><defs><style type="text/css"></style></defs><path d="M945.28512 875.7248l-159.02208-156.11904c50.65216-67.06688 81.0496-150.27712 81.0496-240.80384 0-221.12256-179.21536-400.37888-400.37376-400.37888-221.13792 0-400.384 179.25632-400.384 400.37888 0 221.16352 179.24096 400.39936 400.384 400.39936 101.888 0 194.62144-38.38464 265.27744-101.05856l159.24736 156.32896c15.6416 15.36512 40.36608 14.71488 55.2448-1.47456 14.84288-16.19456 14.21824-41.856-1.42336-57.27232z m-478.32064-67.15392c-182.10816 0-329.71776-147.6352-329.71776-329.74336 0-182.08768 147.61472-329.728 329.71776-329.728 182.0928 0 329.71776 147.6352 329.71776 329.728 0 182.10816-147.62496 329.74336-329.71776 329.74336z" fill="#5B7083" p-id="2527"></path></svg>