<?xml version="1.0" encoding="utf-8"?>
<!-- Generator: Adobe Illustrator 24.3.0, SVG Export Plug-In . SVG Version: 6.00 Build 0)  -->
<svg version="1.1" xmlns="http://www.w3.org/2000/svg" xmlns:xlink="http://www.w3.org/1999/xlink" x="0px" y="0px"
	 viewBox="0 0 1025 1024" style="enable-background:new 0 0 1025 1024;" xml:space="preserve">
<style type="text/css">
	.st0{fill:#E02451;}
</style>
<g id="vector">
	<path id="path" class="st0" d="M511.9,958l-21.4-21.7c-20.3-20.6-39.4-35.3-77.3-64.7c-23.7-18.3-53.1-41.1-94.1-73.9
		C211,711.2,63.7,576.1,63.7,405.5C63.7,231.2,200.4,65,327.1,65c70.8,0,135.2,31.3,184.8,88.9C561.6,96.2,626.1,65,697,65
		c126.6,0,263.2,165.6,263.2,338.9c0,179.2-166.3,325-255.7,394.1c-20.3,15.7-37.9,29.2-53.2,41.1c-68,52.4-90.9,70-117.9,97.3
		L511.9,958z M327.1,126.4c-97.5,0-202.8,142.7-202.8,279.1c0,140.8,128.5,260.9,231.8,343.6c41.1,32.9,70.3,55.5,93.7,73.7
		c26.8,20.7,45.3,35,61.8,49.6c23.3-21.1,50.6-42.1,102.8-82.3c15.3-11.8,32.8-25.3,53.1-41c112.2-86.7,231.9-207.9,231.9-345.3
		c0-135.4-105.1-277.5-202.5-277.5c-62.7,0-119.4,33.8-159.8,95.2l-25.2,38.3l-25.2-38.3C446.3,160.2,389.6,126.4,327.1,126.4z"/>
</g>
<g id="圖層_2">
	<path class="st0" d="M288,106.5c-111.8,11.1-173.8,158.5-178,169c-42.5,104.8-14.4,201.6-6,229c27.8,91,84.3,144.6,196,248
		c136.5,126.4,169.5,176.1,207,164c26.9-8.7,22.2-34.9,62-80c53.5-60.7,99.7-56,167-101c84.3-56.4,122.4-137.7,138-171
		c17.7-37.7,61.1-133.9,37-253c-10.1-49.9-29.2-144.3-104-183c-91.3-47.3-226.6,8.4-253,25c-2.9,1.8-14.2,9.3-31,14
		c-23.3,6.6-43.1,4-50,3c-46.2-6.5-58.6-36.2-104-54C369,116.5,332.3,102.2,288,106.5z"/>
</g>
</svg>
