<svg
    xmlns="http://www.w3.org/2000/svg"
    viewBox="0 0 1025 1024"
    id="vector">
    <path
        id="path"
        d="M 511.887 957.993 L 490.459 936.282 C 470.113 915.703 451.082 900.97 413.117 871.582 C 389.448 853.27 359.982 830.476 318.984 797.639 C 210.989 711.203 63.695 576.065 63.695 405.512 C 63.695 231.222 200.405 65.03 327.121 65.03 C 397.871 65.03 462.284 96.297 511.889 153.913 C 561.598 96.221 626.09 64.951 696.967 64.951 C 823.531 64.951 960.138 230.528 960.138 403.835 C 960.138 583.067 793.81 728.865 704.44 797.942 C 684.144 813.655 666.578 827.175 651.252 838.998 C 583.232 891.357 560.313 908.997 533.372 936.279 L 511.887 957.993 Z M 327.119 126.432 C 229.609 126.432 124.345 269.167 124.345 405.513 C 124.345 546.344 252.888 666.442 356.168 749.142 C 397.22 782.005 426.428 804.619 449.917 822.803 C 476.727 843.536 495.247 857.83 511.727 872.432 C 535.011 851.339 562.313 830.296 614.517 790.092 C 629.842 778.323 647.356 764.827 667.6 749.139 C 779.79 662.422 899.475 541.192 899.475 403.836 C 899.475 268.466 794.368 126.355 696.957 126.355 C 634.297 126.355 577.556 160.146 537.121 221.52 L 511.881 259.843 L 486.666 221.52 C 446.315 160.199 389.627 126.432 327.119 126.432 Z"
        fill="#e02451"
        stroke-width="1"/>
</svg>
