<?xml version="1.0" standalone="no"?><!DOCTYPE svg PUBLIC "-//W3C//DTD SVG 1.1//EN" "http://www.w3.org/Graphics/SVG/1.1/DTD/svg11.dtd"><svg t="1609221652117" class="icon" viewBox="0 0 1025 1024" version="1.1" xmlns="http://www.w3.org/2000/svg" p-id="7464" width="32.03125" height="32" xmlns:xlink="http://www.w3.org/1999/xlink"><defs><style type="text/css"></style></defs><path d="M511.887431 957.992561l-21.428036-21.710482c-20.34635-20.578651-39.377688-35.311898-77.342122-64.699591-23.669184-18.312943-53.135677-41.106135-94.133336-73.94356C210.989253 711.20327 63.694656 576.065111 63.694656 405.511696c0-174.289685 136.710033-340.481561 263.425978-340.481561 70.750691 0 135.163743 31.266574 184.768844 88.8825 49.70846-57.691654 114.20031-88.961298 185.077897-88.961298 126.563465 0 263.170139 165.576839 263.170139 338.884103 0 179.231468-166.327981 325.029919-255.697599 394.106401-20.296205 15.71362-37.862099 29.233167-53.187868 41.055991-68.020379 52.35895-90.939444 69.999548-117.880295 97.281177L511.887431 957.992561zM327.118587 126.432476c-97.509385 0-202.773757 142.734525-202.773757 279.080243 0 140.831084 128.543657 260.928991 231.82272 343.629401 41.052921 32.863008 70.260504 55.477113 93.749578 73.661113 26.809862 20.733178 45.329522 35.026381 61.809636 49.628638 23.284403-21.092376 50.586499-42.135631 102.789898-82.34019 15.325769-11.768586 32.839471-25.264595 53.083485-40.952632 112.189417-86.71708 231.874911-207.946818 231.874911-345.302587 0-135.370461-105.106775-277.481762-202.517918-277.481762-62.660044 0-119.401001 33.791192-159.835815 95.164878l-25.240035 38.323632-25.215474-38.323632C446.314918 160.199107 389.627175 126.432476 327.118587 126.432476z" p-id="7465" fill="#8393A1"></path></svg>