<?xml version="1.0" standalone="no"?><!DOCTYPE svg PUBLIC "-//W3C//DTD SVG 1.1//EN" "http://www.w3.org/Graphics/SVG/1.1/DTD/svg11.dtd"><svg t="1608951569447" class="icon" viewBox="0 0 1047 1024" version="1.1" xmlns="http://www.w3.org/2000/svg" p-id="10720" xmlns:xlink="http://www.w3.org/1999/xlink" width="22.494140625" height="22"><defs><style type="text/css"></style></defs><path d="M817.313978 943.941818H230.841251a34.909091 34.909091 0 0 1-34.909091-34.909091V565.061818a34.909091 34.909091 0 0 1 69.818182 0v309.061818h516.654545V389.818182a34.909091 34.909091 0 0 1 69.818182 0v519.214545a34.909091 34.909091 0 0 1-34.909091 34.909091z" fill="#2BA6F2" p-id="10721"></path><path d="M1012.804887 565.294545a35.141818 35.141818 0 0 1-23.272727-8.145454L512.441251 160.814545l-454.050909 395.636364a34.909091 34.909091 0 0 1-46.545455-52.596364L489.168524 88.669091a34.676364 34.676364 0 0 1 45.149091 0l500.82909 414.72a35.141818 35.141818 0 0 1-23.272727 61.905454z" fill="#2BA6F2" p-id="10722"></path><path d="M624.383069 493.614545m34.909091 0l0 0q34.909091 0 34.909091 34.909091l0 174.545455q0 34.909091-34.909091 34.909091l0 0q-34.909091 0-34.909091-34.909091l0-174.545455q0-34.909091 34.909091-34.909091Z" fill="#2BA6F2" p-id="10723"></path></svg>