<?xml version="1.0" standalone="no"?><!DOCTYPE svg PUBLIC "-//W3C//DTD SVG 1.1//EN" "http://www.w3.org/Graphics/SVG/1.1/DTD/svg11.dtd"><svg t="1609827728487" class="icon" viewBox="0 0 1024 1024" version="1.1" xmlns="http://www.w3.org/2000/svg" p-id="4636" width="32" height="32" xmlns:xlink="http://www.w3.org/1999/xlink"><defs><style type="text/css"></style></defs><path d="M848 336H368c-26.5 0-48-21.5-48-48s21.5-48 48-48h480c26.5 0 48 21.5 48 48s-21.5 48-48 48zM848 560H368c-26.5 0-48-21.5-48-48s21.5-48 48-48h480c26.5 0 48 21.5 48 48s-21.5 48-48 48zM848 784H368c-26.5 0-48-21.5-48-48s21.5-48 48-48h480c26.5 0 48 21.5 48 48s-21.5 48-48 48z" fill="#2c2c2c" p-id="4637"></path><path d="M176 288m-48 0a48 48 0 1 0 96 0 48 48 0 1 0-96 0Z" fill="#2c2c2c" p-id="4638"></path><path d="M176 512m-48 0a48 48 0 1 0 96 0 48 48 0 1 0-96 0Z" fill="#2c2c2c" p-id="4639"></path><path d="M176 736m-48 0a48 48 0 1 0 96 0 48 48 0 1 0-96 0Z" fill="#2c2c2c" p-id="4640"></path></svg>