<?xml version="1.0" standalone="no"?><!DOCTYPE svg PUBLIC "-//W3C//DTD SVG 1.1//EN" "http://www.w3.org/Graphics/SVG/1.1/DTD/svg11.dtd"><svg t="1609827666886" class="icon" viewBox="0 0 1024 1024" version="1.1" xmlns="http://www.w3.org/2000/svg" p-id="3422" width="32" height="32" xmlns:xlink="http://www.w3.org/1999/xlink"><defs><style type="text/css"></style></defs><path d="M647.641 63.946h-289.38c-104.206 0-188.983 84.777-188.983 188.983v676.204a29.528 29.528 0 0 0 45.415 24.892l288.258-183.972 288.258 183.972a29.513 29.513 0 0 0 15.887 4.637 29.528 29.528 0 0 0 29.527-29.529V252.929c0.001-104.205-84.777-188.983-188.982-188.983z m129.926 811.312L518.837 710.13c-4.845-3.091-10.365-4.637-15.886-4.637s-11.041 1.546-15.886 4.637L228.336 875.258V252.929c0-71.641 58.284-129.926 129.926-129.926h289.38c71.641 0 129.926 58.284 129.926 129.926v622.329z" fill="#2c2c2c" p-id="3423"></path><path d="M629.924 329.703H389.266c-16.308 0-29.529 13.22-29.529 29.529s13.22 29.529 29.529 29.529h240.658c16.308 0 29.529-13.22 29.529-29.529s-13.221-29.529-29.529-29.529zM629.924 498.016H389.266c-16.308 0-29.529 13.22-29.529 29.529 0 16.308 13.22 29.529 29.529 29.529h240.658c16.308 0 29.529-13.22 29.529-29.529 0-16.309-13.221-29.529-29.529-29.529z" fill="#2c2c2c" p-id="3424"></path></svg>