<?xml version="1.0" standalone="no"?><!DOCTYPE svg PUBLIC "-//W3C//DTD SVG 1.1//EN" "http://www.w3.org/Graphics/SVG/1.1/DTD/svg11.dtd"><svg t="1609828268982" class="icon" viewBox="0 0 1024 1024" version="1.1" xmlns="http://www.w3.org/2000/svg" p-id="2388" width="32" height="32" xmlns:xlink="http://www.w3.org/1999/xlink"><defs><style type="text/css"></style></defs><path d="M771.584 835.584H250.368c-62.976 0-114.176-51.2-114.176-114.176V330.24c0-62.976 51.2-114.176 114.176-114.176h521.216c62.976 0 114.176 51.2 114.176 114.176v391.168c0 62.976-51.2 114.176-114.176 114.176zM250.368 282.624c-26.112 0-47.616 21.504-47.616 47.616v391.168c0 26.112 21.504 47.616 47.616 47.616h521.216c26.112 0 47.616-21.504 47.616-47.616V330.24c0-26.112-21.504-47.616-47.616-47.616H250.368z" fill="#2BA6F2" p-id="2389"></path><path d="M510.976 540.672c-26.624 0-53.248-8.704-74.752-26.112L163.84 293.888l41.984-51.712 272.384 220.16c18.944 15.36 47.104 15.36 66.048 0l272.384-220.16 41.984 51.712-272.384 220.16c-22.016 17.92-48.64 26.624-75.264 26.624z" fill="#2BA6F2" p-id="2390"></path></svg>