<?xml version="1.0" standalone="no"?><!DOCTYPE svg PUBLIC "-//W3C//DTD SVG 1.1//EN" "http://www.w3.org/Graphics/SVG/1.1/DTD/svg11.dtd"><svg t="1609827556594" class="icon" viewBox="0 0 1024 1024" version="1.1" xmlns="http://www.w3.org/2000/svg" p-id="1185" width="32" height="32" xmlns:xlink="http://www.w3.org/1999/xlink"><defs><style type="text/css"></style></defs><path d="M512 42.666667C251.733333 42.666667 42.666667 251.733333 42.666667 512s209.066667 469.333333 469.333333 469.333333c260.266667 0 469.333333-209.066667 469.333333-469.333333S772.266667 42.666667 512 42.666667zM490.666667 936.533333C273.066667 925.866667 98.133333 750.933333 85.333333 533.333333l87.466667 0c6.4 19.2 23.466667 36.266667 44.8 40.533333 27.733333 128 136.533333 226.133333 270.933333 234.666667L488.533333 936.533333zM490.666667 768c-113.066667-8.533333-202.666667-91.733333-228.266667-198.4 14.933333-6.4 25.6-21.333333 32-36.266667l113.066667 0c8.533333 42.666667 40.533333 74.666667 83.2 83.2L490.666667 768zM490.666667 407.466667c-42.666667 8.533333-74.666667 40.533333-83.2 83.2l-113.066667 0c-6.4-14.933333-17.066667-27.733333-32-36.266667 23.466667-106.666667 115.2-187.733333 228.266667-198.4L490.666667 407.466667zM490.666667 213.333333c-134.4 8.533333-243.2 106.666667-270.933333 234.666667-21.333333 4.266667-38.4 21.333333-44.8 40.533333L85.333333 488.533333C98.133333 273.066667 273.066667 98.133333 490.666667 87.466667L490.666667 213.333333zM533.333333 87.466667C750.933333 98.133333 925.866667 273.066667 938.666667 490.666667l-128 0c-4.266667-53.333333-21.333333-100.266667-49.066667-142.933333 4.266667-8.533333 6.4-17.066667 6.4-27.733333 0-36.266667-27.733333-64-64-64-10.666667 0-19.2 2.133333-27.733333 6.4-40.533333-27.733333-89.6-44.8-142.933333-49.066667L533.333333 87.466667zM533.333333 258.133333c40.533333 4.266667 78.933333 17.066667 113.066667 36.266667C642.133333 302.933333 640 311.466667 640 320c0 36.266667 27.733333 64 64 64 8.533333 0 17.066667-2.133333 25.6-6.4 21.333333 34.133333 34.133333 70.4 36.266667 113.066667l-151.466667 0c-8.533333-42.666667-40.533333-74.666667-83.2-83.2L531.2 258.133333zM533.333333 616.533333c42.666667-8.533333 74.666667-40.533333 83.2-83.2L768 533.333333c-10.666667 123.733333-108.8 224-234.666667 234.666667L533.333333 616.533333zM533.333333 936.533333l0-128c147.2-10.666667 266.666667-128 277.333333-275.2l128 0C925.866667 750.933333 750.933333 925.866667 533.333333 936.533333z" p-id="1186" fill="#2c2c2c"></path></svg>