<?xml version="1.0" standalone="no"?><!DOCTYPE svg PUBLIC "-//W3C//DTD SVG 1.1//EN" "http://www.w3.org/Graphics/SVG/1.1/DTD/svg11.dtd"><svg t="1609827600380" class="icon" viewBox="0 0 1024 1024" version="1.1" xmlns="http://www.w3.org/2000/svg" p-id="2094" width="32" height="32" xmlns:xlink="http://www.w3.org/1999/xlink"><defs><style type="text/css"></style></defs><path d="M512 799m-162 0a162 162 0 1 0 324 0 162 162 0 1 0-324 0Z" fill="#2BA6F2" p-id="2095"></path><path d="M252 696.9c20.4 0 36.9-16.5 36.9-36.9V444.2C288.8 321.1 388.9 221 512 221s223.2 100.1 223.2 223.2v215.9c0 20.4 16.5 36.9 36.9 36.9s36.9-16.5 36.9-36.9V444.2c0-151.2-113.7-276.3-260-294.5V99.9c0-20.4-16.5-36.9-36.9-36.9s-36.9 16.5-36.9 36.9v49.8c-146.4 18.2-260 143.3-260 294.5v215.9c-0.1 20.3 16.4 36.8 36.8 36.8zM867.5 726.6h-711c-20.4 0-36.9 16.5-36.9 36.9s16.5 36.9 36.9 36.9h711c20.4 0 36.9-16.5 36.9-36.9s-16.5-36.9-36.9-36.9z" fill="#2BA6F2" p-id="2096"></path></svg>