<?xml version="1.0" standalone="no"?><!DOCTYPE svg PUBLIC "-//W3C//DTD SVG 1.1//EN" "http://www.w3.org/Graphics/SVG/1.1/DTD/svg11.dtd"><svg t="1609827778247" class="icon" viewBox="0 0 1024 1024" version="1.1" xmlns="http://www.w3.org/2000/svg" p-id="5499" width="32" height="32" xmlns:xlink="http://www.w3.org/1999/xlink"><defs><style type="text/css"></style></defs><path d="M780.659375 354.2375c0-175.3125-140.259375-315.609375-315.684375-315.609375S149.3375 178.915625 149.3375 354.2375c0 119.2125 63.121875 220.875 161.325 273.43125C173.740625 681.471875 74.440625 800.61875 47.646875 943.26875c-3.50625 17.540625 7.021875 38.596875 28.078125 42.103125h6.80625c17.559375 0 31.603125-10.528125 35.1-28.06875 30.99375-163.790625 174.459375-283.790625 343.753125-287.53125h7.021875c168.4125 0 312.215625-143.746875 312.215625-315.553125l0.0375 0.01875z m-561.24375 0c0-136.771875 108.740625-245.503125 245.559375-245.503125s245.55 108.73125 245.55 245.503125c0 133.209375-108.740625 241.921875-242.04375 245.4375h-10.528125c-133.303125-7.03125-238.5375-115.734375-238.5375-245.4375z m487.59375 315.54375c0 21.046875 14.04375 35.08125 35.1 35.08125H917.46875c21.05625 0 35.1-14.034375 35.1-35.08125 0-21.046875-14.04375-35.08125-35.1-35.08125H742.109375c-17.55 0-35.1 14.090625-35.1 35.08125zM917.46875 771.471875H636.884375c-21.05625 0-35.1 14.04375-35.1 35.090625s14.04375 35.08125 35.1 35.08125H917.46875c21.05625 0 35.1-14.034375 35.1-35.08125 0-21.046875-14.04375-35.090625-35.1-35.090625z m0 140.2875H640.390625c-21.065625 0-35.1 14.034375-35.1 35.090625s14.034375 35.00625 35.1 35.00625H917.46875c21.05625 0 35.1-14.04375 35.1-35.08125s-17.55-35.090625-35.1-35.090625v0.075z" p-id="5500" fill="#2c2c2c"></path></svg>